# xmcd
#
# Track frame offsets: 
#        183
#        14368
#        29950
#        47428
#        65045
#        81478
#        97303
#        114898
#        131723
#        146550
#        163525
#
# Disc length: 2467 seconds
#
# Revision: 2
# Processed by: cddbd v1.5.2PL0 Copyright (c) Steve Scherf et al.
# Submitted via: ExactAudioCopyFreeDBPlugin 1.0
#
DISCID=9f09a10b
DTITLE=Ian Tyson - And Stood There Amazed
DYEAR=1991
DGENRE=Country
TTITLE0=Black Nights
TTITLE1=Lights of Laramie
TTITLE2=Jaquima to Freno
TTITLE3=Springtime in Alberta
TTITLE4=Non-Pro Song
TTITLE5=Milk River Ridge
TTITLE6=Rocks Begin to Roll
TTITLE7=Jack Link
TTITLE8=You're Not Alone
TTITLE9=Magpie
TTITLE10=Home on the Range
EXTD=Background Vocals - Cindy Church
EXTT0=
EXTT1=
EXTT2=
EXTT3=
EXTT4=
EXTT5=
EXTT6=
EXTT7=
EXTT8=
EXTT9=
EXTT10=
PLAYORDER=
